PathFileType	3	(X/Y/Z)	D:\VICON_DB\Goncalves\Pilot01\09-03-2026\bw_sq_120_01.trc
DataRate	CameraRate	NumFrames	NumMarkers	Units	OrigDataRate	OrigDataStartFrame	OrigNumFrames
200.0	200.0	9	34	mm	200.0	274	730	
Frame#	Time	LASI			RASI			LPSI			RPSI			LTHI			LTHAP			LTHAD			LKNE			LKNM			LTIB			LTIAP			LTIAD			LANK			LMED			LHEE			LTOE			LFMH			LSMH			LVMH			RTHI			RTHAP			RTHAD			RKNE			RKNM			RTIB			RTIAP			RTIAD			RANK			RMED			RHEE			RTOE			RFMH			RSMH			RVMH			
		X1	Y1	Z1	X2	Y2	Z2	X3	Y3	Z3	X4	Y4	Z4	X5	Y5	Z5	X6	Y6	Z6	X7	Y7	Z7	X8	Y8	Z8	X9	Y9	Z9	X10	Y10	Z10	X11	Y11	Z11	X12	Y12	Z12	X13	Y13	Z13	X14	Y14	Z14	X15	Y15	Z15	X16	Y16	Z16	X17	Y17	Z17	X18	Y18	Z18	X19	Y19	Z19	X20	Y20	Z20	X21	Y21	Z21	X22	Y22	Z22	X23	Y23	Z23	X24	Y24	Z24	X25	Y25	Z25	X26	Y26	Z26	X27	Y27	Z27	X28	Y28	Z28	X29	Y29	Z29	X30	Y30	Z30	X31	Y31	Z31	X32	Y32	Z32	X33	Y33	Z33	X34	Y34	Z34	
274	1.365	268.03299	611.45123	-1094.5811	268.83401	623.36267	-1360.6335				441.78265	723.44031	-1256.8069	251.85123	591.23199	-1017.5762	304.85342	613.8924	-1030.6863	238.5177	537.20087	-958.47113	133.57755	426.43777	-902.05365				191.58342	251.35687	-894.78381	89.631058	301.09561	-924.09888	158.21147	211.00485	-917.28741	282.97693	68.497154	-946.60089				316.47699	69.190636	-1002.9513	203.89427	70.686646	-951.83392	146.73428	45.870537	-973.13562				169.92831	25.128359	-896.48309	209.1235	529.12756	-1466.6611	269.79358	617.14514	-1410.2074	197.20094	584.76868	-1408.9098	114.65724	428.25049	-1487.1642				138.84453	253.44505	-1501.2505	67.422333	284.59845	-1459.5076	113.73363	214.39078	-1451.4388	272.49353	62.832424	-1456.9832				302.85101	64.475525	-1407.7711	182.76486	68.116867	-1450.3894	131.34077	49.608387	-1434.4041				156.28922	17.990622	-1503.751
275	1.37	268.35364	609.08759	-1094.4381	269.24344	620.99731	-1360.6469				442.13751	721.1875	-1256.7449	252.42574	589.93274	-1017.779	305.47708	612.32373	-1030.8009	238.82822	536.16547	-958.50012	133.33742	426.08395	-901.76611				191.31689	251.1422	-894.60077	89.268768	300.80817	-923.87225	158.00166	210.7791	-917.16998	282.95587	68.474236	-946.60834				316.45114	69.223137	-1002.9626	203.90018	70.680359	-951.83136	146.73065	45.865234	-973.1441				169.93945	25.178005	-896.46765	209.51144	528.13782	-1466.7037	270.44022	615.66919	-1410.1063	197.86607	583.71674	-1408.8085	114.49261	427.82764	-1487.4535				138.59645	253.20166	-1501.4412	67.083076	284.32074	-1459.7611	113.52837	214.1846	-1451.606	272.4881	62.814281	-1456.9667				302.82486	64.494621	-1407.7461	182.76358	68.106453	-1450.3994	131.34404	49.610355	-1434.4102				156.3035	17.994501	-1503.7489
276	1.375	268.66132	606.7453	-1094.2905	269.642	618.67395	-1360.6472				442.49103	718.94269	-1256.6854	252.97675	588.63367	-1017.9896	306.07309	610.74884	-1030.9158	239.11928	535.13116	-958.53632	133.08565	425.72961	-901.48895				191.04755	250.93138	-894.42822	88.900482	300.51932	-923.65631	157.78969	210.55588	-917.0592	282.93274	68.453438	-946.61987				316.42233	69.257095	-1002.9799	203.90414	70.674538	-951.83179	146.72517	45.860195	-973.15393				169.94963	25.231771	-896.45123	209.88104	527.15186	-1466.7385	271.06088	614.19897	-1410.0016	198.51157	582.66425	-1408.6969	114.31805	427.40826	-1487.7297				138.34567	252.96083	-1501.6201	66.742767	284.04483	-1460.0005	113.3232	213.98044	-1451.7618	272.48096	62.79789	-1456.9507				302.79776	64.514656	-1407.7218	182.76096	68.09642	-1450.4084	131.34644	49.612301	-1434.4154				156.31767	17.998604	-1503.7462
277	1.38	268.95456	604.42725	-1094.1388	270.0303	616.39539	-1360.6343				442.84283	716.70563	-1256.6277	253.50446	587.33411	-1018.2048	306.63919	609.16675	-1031.0282	239.39238	534.0965	-958.57703	132.82397	425.37381	-901.21948				190.77728	250.72479	-894.26422	88.527527	300.22928	-923.44641	157.57768	210.33611	-916.95245	282.90756	68.434685	-946.63507				316.39032	69.292648	-1003.0031	203.90564	70.669182	-951.83478	146.71762	45.855743	-973.16449				169.959	25.288246	-896.43402	210.23195	526.16901	-1466.7657	271.65549	612.73413	-1409.8947	199.13708	581.61066	-1408.5764	114.13297	426.99231	-1487.9937				138.09213	252.72307	-1501.7883	66.401566	283.77054	-1460.226	113.11739	213.77827	-1451.9071	272.47205	62.783321	-1456.9355				302.76974	64.535622	-1407.6976	182.75711	68.086807	-1450.4169	131.34764	49.614372	-1434.42				156.33159	18.002989	-1503.7435
278	1.385	269.23172	602.13641	-1093.9841	270.40887	614.16437	-1360.6084				443.19272	714.47577	-1256.5704	254.00925	586.03381	-1018.4207	307.17337	607.57654	-1031.1357	239.64919	533.06	-958.61945	132.55428	425.01562	-900.95508				190.50786	250.52264	-894.10632	88.15126	299.93808	-923.23822	157.36766	210.12059	-916.84729	282.88068	68.417862	-946.65356				316.35464	69.329796	-1003.0322	203.90434	70.664261	-951.8396	146.70781	45.852104	-973.17499				169.96767	25.345545	-896.41644	210.56424	525.18854	-1466.786	272.2244	611.27411	-1409.7867	199.74269	580.55573	-1408.4479	113.93701	426.57953	-1488.2455				137.83571	252.48878	-1501.9458	66.059677	283.49774	-1460.4374	112.91002	213.57794	-1452.043	272.46121	62.770584	-1456.9213				302.74075	64.557434	-1407.6741	182.75215	68.077621	-1450.4243	131.34743	49.616646	-1434.4242				156.34514	18.0077	-1503.7405
279	1.39	269.49124	599.87665	-1093.8279	270.77811	611.9826	-1360.5704				443.54025	712.25244	-1256.5132	254.49156	584.73273	-1018.6332	307.67377	605.97784	-1031.2362	239.8914	532.02045	-958.66107	132.27847	424.65399	-900.69336				190.24086	250.32506	-893.95264	87.773033	299.64581	-923.02802	157.16139	209.90999	-916.74164	282.85205	68.402885	-946.67462				316.31512	69.368439	-1003.0667	203.89995	70.659714	-951.84576	146.69551	45.849411	-973.18481				169.97574	25.401552	-896.39911	210.87851	524.20972	-1466.7998	272.7684	609.81824	-1409.6785	200.32881	579.49945	-1408.3124	113.73017	426.16986	-1488.4857				137.57651	252.2583	-1502.093	65.717293	283.22644	-1460.6354	112.69999	213.37906	-1452.1699	272.44836	62.759651	-1456.9075				302.71078	64.579987	-1407.6504	182.74619	68.06881	-1450.4305	131.3456	49.619118	-1434.4282				156.35826	18.012754	-1503.7372
280	1.395	269.73181	597.65131	-1093.6711	271.13831	609.8515	-1360.5211				443.88504	710.03467	-1256.4548	254.95207	583.43097	-1018.8386	308.1391	604.3703	-1031.3269	240.1208	530.97662	-958.69897	131.9985	424.28802	-900.43231				189.97766	250.13199	-893.80133	87.394165	299.35263	-922.81274	156.9603	209.70486	-916.63367	282.8219	68.389664	-946.698				316.27158	69.408401	-1003.1061	203.89207	70.655365	-951.85242	146.68056	45.84774	-973.1933				169.98329	25.454382	-896.38263	211.17575	523.23193	-1466.8073	273.28885	608.36578	-1409.5706	200.89626	578.44177	-1408.1708	113.51279	425.76294	-1488.7144				137.31464	252.03192	-1502.2301	65.374542	282.95654	-1460.8203	112.48654	213.18121	-1452.2886	272.4335	62.750465	-1456.8943				302.67969	64.603195	-1407.6261	182.73933	68.060326	-1450.4355	131.34192	49.621742	-1434.4319				156.37077	18.018181	-1503.7343
281	1.4	269.95236	595.46381	-1093.516	271.48953	607.7713	-1360.4619				444.22644	707.82104	-1256.3942	255.39172	582.12915	-1019.0328	308.56876	602.75397	-1031.4054	240.3391	529.92749	-958.73077	131.71625	423.91727	-900.17023				189.71939	249.94351	-893.65076	87.0159	299.05896	-922.59009	156.76556	209.50565	-916.52209	282.79028	68.378059	-946.72278				316.224	69.449577	-1003.15	203.88054	70.651054	-951.85931	146.66287	45.847103	-973.20001				169.99023	25.502638	-896.36731	211.45726	522.25433	-1466.808	273.78717	606.9162	-1409.4636	201.44603	577.38306	-1408.0238	113.28545	425.35837	-1488.9313				137.05051	251.80977	-1502.3567	65.031525	282.68796	-1460.9922	112.26949	212.98393	-1452.3997	272.41666	62.742977	-1456.8811				302.64755	64.626968	-1407.6012	182.73155	68.052071	-1450.4388	131.33623	49.624393	-1434.4359				156.38257	18.024021	-1503.7311
282	1.405	270.15198	593.31763	-1093.3636	271.83173	605.74121	-1360.3947				444.56354	705.61011	-1256.3307	255.81201	580.82794	-1019.2121	308.96304	601.12903	-1031.4705	240.54811	528.8725	-958.75421	131.43353	423.54129	-899.90564				189.467	249.75937	-893.49988	86.639427	298.76544	-922.35834	156.57848	209.31276	-916.40601	282.75726	68.367882	-946.74866				316.17264	69.491798	-1003.1976	203.86525	70.646553	-951.86572	146.64236	45.8475	-973.20447				169.99654	25.545431	-896.35321	211.72437	521.27673	-1466.8019	274.26523	605.46893	-1409.3578	201.97926	576.32336	-1407.8724	113.04889	424.95575	-1489.1366				136.78465	251.59174	-1502.4729	64.688324	282.42068	-1461.1519	112.04929	212.78699	-1452.5026	272.3978	62.737114	-1456.8676				302.61429	64.651245	-1407.5752	182.72282	68.043961	-1450.441	131.32837	49.626953	-1434.4402				156.39343	18.030365	-1503.7283
